<svg width="21" height="23" viewBox="0 0 21 23" fill="none" xmlns="http://www.w3.org/2000/svg">
<path d="M20.5778 17.8999L19.0108 15.8109C18.2132 14.7423 17.7808 13.4453 17.7778 12.1119V8.49988C17.7759 6.81803 17.1684 5.19312 16.0667 3.9224C14.9649 2.65169 13.4424 1.82014 11.7778 1.57988V1.49988C11.7778 1.23466 11.6725 0.980308 11.4849 0.792771C11.2974 0.605235 11.043 0.499878 10.7778 0.499878C10.5126 0.499878 10.2583 0.605235 10.0707 0.792771C9.88319 0.980308 9.77783 1.23466 9.77783 1.49988V1.57988C8.11323 1.82014 6.59079 2.65169 5.48901 3.9224C4.38724 5.19312 3.7798 6.81803 3.77783 8.49988V12.1119C3.77497 13.4455 3.34301 14.7428 2.54583 15.8119L0.977833 17.8999C0.866405 18.0484 0.798551 18.2251 0.781873 18.4101C0.765195 18.595 0.800352 18.781 0.883405 18.9471C0.966458 19.1132 1.09413 19.2529 1.2521 19.3505C1.41008 19.4482 1.59212 19.4999 1.77783 19.4999H6.91983C7.1381 20.3575 7.63589 21.1179 8.33455 21.661C9.03321 22.2041 9.89291 22.4989 10.7778 22.4989C11.6628 22.4989 12.5225 22.2041 13.2211 21.661C13.9198 21.1179 14.4176 20.3575 14.6358 19.4999H19.7778C19.9635 19.4999 20.1456 19.4482 20.3036 19.3505C20.4615 19.2529 20.5892 19.1132 20.6723 18.9471C20.7553 18.781 20.7905 18.595 20.7738 18.4101C20.7571 18.2251 20.6893 18.0484 20.5778 17.8999ZM10.7778 20.4999C10.4283 20.4988 10.0852 20.4059 9.78299 20.2304C9.48075 20.0548 9.22997 19.8029 9.05583 19.4999H12.4998C12.3257 19.8029 12.0749 20.0548 11.7727 20.2304C11.4704 20.4059 11.1273 20.4988 10.7778 20.4999ZM3.77783 17.4999L4.14583 17.0099C5.20148 15.5947 5.77369 13.8774 5.77783 12.1119V8.49988C5.77783 7.1738 6.30462 5.90203 7.2423 4.96434C8.17998 4.02666 9.45175 3.49988 10.7778 3.49988C12.1039 3.49988 13.3757 4.02666 14.3134 4.96434C15.251 5.90203 15.7778 7.1738 15.7778 8.49988V12.1119C15.7814 13.8783 16.354 15.5965 17.4108 17.0119L17.7778 17.4999H3.77783Z" fill="#333333"/>
</svg>
