<svg width="22" height="17" viewBox="0 0 22 17" fill="none" xmlns="http://www.w3.org/2000/svg">
<path d="M21.4228 6.09375C20.4795 6.83203 19.29 7.73438 15.1064 10.7695C14.2861 11.3848 12.7685 12.7383 11.333 12.7383C9.85641 12.7383 8.37985 11.3848 7.51852 10.7695C3.33493 7.73438 2.14548 6.83203 1.20212 6.09375C1.03806 5.9707 0.832977 6.09375 0.832977 6.29883V14.666C0.832977 15.7734 1.69431 16.6348 2.80173 16.6348H19.8642C20.9306 16.6348 21.833 15.7734 21.833 14.666V6.29883C21.833 6.09375 21.5869 5.9707 21.4228 6.09375ZM11.333 11.3848C12.2763 11.4258 13.6299 10.1953 14.3271 9.70312C19.7822 5.76562 20.1924 5.39648 21.4228 4.41211C21.6689 4.24805 21.833 3.96094 21.833 3.63281V2.85352C21.833 1.78711 20.9306 0.884766 19.8642 0.884766H2.80173C1.69431 0.884766 0.832977 1.78711 0.832977 2.85352V3.63281C0.832977 3.96094 0.956024 4.24805 1.20212 4.41211C2.43259 5.39648 2.84274 5.76562 8.29782 9.70312C8.99509 10.1953 10.3486 11.4258 11.333 11.3848Z" fill="#7900B1"/>
</svg>
