<svg width="22" height="22" viewBox="0 0 22 22" fill="none" xmlns="http://www.w3.org/2000/svg">
<path d="M10.9799 5.5813C7.97986 5.5813 5.58923 8.0188 5.58923 10.9719C5.58923 13.9719 7.97986 16.3625 10.9799 16.3625C13.933 16.3625 16.3705 13.9719 16.3705 10.9719C16.3705 8.0188 13.933 5.5813 10.9799 5.5813ZM10.9799 14.4875C9.05798 14.4875 7.46423 12.9407 7.46423 10.9719C7.46423 9.05005 9.01111 7.50317 10.9799 7.50317C12.9017 7.50317 14.4486 9.05005 14.4486 10.9719C14.4486 12.9407 12.9017 14.4875 10.9799 14.4875ZM17.8236 5.3938C17.8236 4.69067 17.2611 4.12817 16.558 4.12817C15.8549 4.12817 15.2924 4.69067 15.2924 5.3938C15.2924 6.09692 15.8549 6.65942 16.558 6.65942C17.2611 6.65942 17.8236 6.09692 17.8236 5.3938ZM21.3861 6.65942C21.2924 4.97192 20.9174 3.47192 19.6986 2.25317C18.4799 1.03442 16.9799 0.659424 15.2924 0.565674C13.558 0.471924 8.35486 0.471924 6.62048 0.565674C4.93298 0.659424 3.47986 1.03442 2.21423 2.25317C0.995483 3.47192 0.620483 4.97192 0.526733 6.65942C0.432983 8.3938 0.432983 13.5969 0.526733 15.3313C0.620483 17.0188 0.995483 18.4719 2.21423 19.7375C3.47986 20.9563 4.93298 21.3313 6.62048 21.425C8.35486 21.5188 13.558 21.5188 15.2924 21.425C16.9799 21.3313 18.4799 20.9563 19.6986 19.7375C20.9174 18.4719 21.2924 17.0188 21.3861 15.3313C21.4799 13.5969 21.4799 8.3938 21.3861 6.65942ZM19.1361 17.1594C18.808 18.0969 18.058 18.8 17.1674 19.175C15.7611 19.7375 12.4799 19.5969 10.9799 19.5969C9.43298 19.5969 6.15173 19.7375 4.79236 19.175C3.85486 18.8 3.15173 18.0969 2.77673 17.1594C2.21423 15.8 2.35486 12.5188 2.35486 10.9719C2.35486 9.47192 2.21423 6.19067 2.77673 4.78442C3.15173 3.8938 3.85486 3.19067 4.79236 2.81567C6.15173 2.25317 9.43298 2.3938 10.9799 2.3938C12.4799 2.3938 15.7611 2.25317 17.1674 2.81567C18.058 3.1438 18.7611 3.8938 19.1361 4.78442C19.6986 6.19067 19.558 9.47192 19.558 10.9719C19.558 12.5188 19.6986 15.8 19.1361 17.1594Z" fill="#7900B1"/>
</svg>
