<svg width="19" height="19" viewBox="0 0 19 19" fill="none" xmlns="http://www.w3.org/2000/svg">
<path d="M2.9031 0.102295C2.24495 0.102295 1.64661 0.353004 1.19786 0.82306C0.719203 1.32444 0.479858 1.95116 0.479858 2.60924C0.479858 3.29864 0.749108 3.9254 1.19786 4.39545C1.64661 4.86551 2.27485 5.14754 2.8732 5.11622C2.8732 5.11622 2.9031 5.11622 2.93304 5.11622C3.53139 5.11622 4.09979 4.86551 4.54854 4.39545C4.99729 3.9254 5.26654 3.29864 5.26654 2.60924C5.29644 1.95116 5.02719 1.32441 4.57844 0.854349C4.12969 0.352967 3.53135 0.102295 2.9031 0.102295ZM4.12969 3.95676C3.8006 4.30148 3.35185 4.52083 2.8732 4.4895C2.42445 4.4895 1.94579 4.30148 1.6167 3.95676C1.2577 3.61204 1.0782 3.11066 1.0782 2.60928C1.0782 2.10789 1.2577 1.63784 1.6167 1.26179C1.94579 0.917072 2.39454 0.729049 2.9031 0.729049C3.35185 0.729049 3.8006 0.917072 4.12969 1.26179C4.48869 1.63784 4.66819 2.10789 4.66819 2.60928C4.66819 3.11066 4.48869 3.61204 4.12969 3.95676Z" fill="#7900B1"/>
<path d="M4.06976 5.7561H1.64652C1.16787 5.7561 0.778931 6.16347 0.778931 6.69622V17.6642C0.778931 18.1656 1.19777 18.6043 1.67643 18.6043H4.06976C4.54842 18.6043 4.96726 18.1656 4.96726 17.6955V6.69622C4.96726 6.1948 4.54842 5.7561 4.06976 5.7561ZM4.36892 17.6955C4.36892 17.8522 4.21932 17.9776 4.06976 17.9776H1.67643C1.52683 17.9776 1.37727 17.8209 1.37727 17.6642V6.69622C1.37727 6.53952 1.49693 6.38286 1.64652 6.38286H4.06976C4.21936 6.38286 4.36892 6.53956 4.36892 6.69622V17.6955Z" fill="#7900B1"/>
<path d="M14.3229 5.44287H13.6946C12.5279 5.44287 11.421 5.97561 10.703 6.82172V6.38298C10.703 6.06963 10.4038 5.75623 10.1046 5.75623H7.11299C6.84374 5.75623 6.51465 6.00694 6.51465 6.35162V18.0403C6.51465 18.3851 6.84374 18.6044 7.11299 18.6044H10.4038C10.6731 18.6044 11.0022 18.3851 11.0022 18.0403V11.2715C11.0022 10.2374 11.7202 9.42263 12.6476 9.42263C13.1262 9.42263 13.575 9.61066 13.9041 9.95538C14.2032 10.2374 14.3229 10.6761 14.3229 11.2402V17.9777C14.3229 18.2911 14.6221 18.6045 14.9213 18.6045H17.9129C18.2121 18.6045 18.5112 18.2911 18.5112 17.9777V9.89273C18.5112 7.38578 16.6863 5.44287 14.3229 5.44287ZM17.9129 17.9464L17.883 17.9777H14.9511L14.9212 11.2402C14.9212 10.4882 14.7417 9.92409 14.3528 9.51672C13.9041 9.04666 13.3057 8.79595 12.6775 8.79595C11.421 8.82728 10.4337 9.89276 10.4337 11.2716V17.9777H7.1429V6.38298H10.1046L10.1345 6.41431V8.38855L10.9423 7.54244L10.9722 7.51112C11.5705 6.63369 12.6176 6.06963 13.7245 6.06963H14.3528C16.3572 6.06963 17.9129 7.76183 17.9129 9.89276V17.9464Z" fill="#7900B1"/>
</svg>
